ffmpeg started on 2016-12-10 at 04:38:51
Report written to "Output/x264/results/ffmpeg/crowd_run_2160p50placebo15000k.log"
Command line:
Tools/ffmpeg/ffmpeg -benchmark -y -i Input/y4m/crowd_run_2160p50.y4m -c:v libx264 -preset placebo -b:v 15000k -an Output/x264/encoded/crowd_run_2160p50placebo15000k.mkv
ffmpeg version N-82227-gdb23fde Copyright (c) 2000-2016 the FFmpeg developers
  built with gcc 5.4.0 (Ubuntu 5.4.0-6ubuntu1~16.04.2) 20160609
  configuration: --prefix=/home/jaroslav/ffmpeg_build --pkg-config-flags=--static --extra-cflags=-I/home/jaroslav/ffmpeg_build/include --extra-ldflags=-L/home/jaroslav/ffmpeg_build/lib --bindir=/home/jaroslav/bin --enable-gpl --enable-libass --enable-libfdk-aac --enable-libfreetype --enable-libmp3lame --enable-libopus --enable-libtheora --enable-libvorbis --enable-libvpx --enable-libx264 --enable-libx265 --enable-nvenc --enable-libmfx --enable-libxvid --enable-libgsm --enable-libopencore-amrnb --enable-version3 --enable-nonfree
  libavutil      55. 35.100 / 55. 35.100
  libavcodec     57. 66.101 / 57. 66.101
  libavformat    57. 57.100 / 57. 57.100
  libavdevice    57.  2.100 / 57.  2.100
  libavfilter     6. 66.100 /  6. 66.100
  libswscale      4.  3.100 /  4.  3.100
  libswresample   2.  4.100 /  2.  4.100
  libpostproc    54.  2.100 / 54.  2.100
Input #0, yuv4mpegpipe, from 'Input/y4m/crowd_run_2160p50.y4m':
  Duration: 00:00:10.00, start: 0.000000, bitrate: 4976642 kb/s
    Stream #0:0: Video: rawvideo (I420 / 0x30323449), yuv420p(progressive), 3840x2160, SAR 1:1 DAR 16:9, 50 fps, 50 tbr, 50 tbn, 50 tbc
[libx264 @ 0x36c21c0] using SAR=1/1
[libx264 @ 0x36c21c0] DPB size (16 frames, 518400 mbs) > level limit (5 frames, 184320 mbs)
[libx264 @ 0x36c21c0] using cpu capabilities: MMX2 SSE2Fast SSSE3 SSE4.2 AVX FMA3 AVX2 LZCNT BMI2
[libx264 @ 0x36c21c0] profile High, level 5.2
[libx264 @ 0x36c21c0] 264 - core 148 - H.264/MPEG-4 AVC codec - Copyleft 2003-2016 - http://www.videolan.org/x264.html - options: cabac=1 ref=16 deblock=1:0:0 analyse=0x3:0x133 me=tesa subme=11 psy=1 psy_rd=1.00:0.00 mixed_ref=1 me_range=24 chroma_me=1 trellis=2 8x8dct=1 cqm=0 deadzone=21,11 fast_pskip=0 chroma_qp_offset=-2 threads=6 lookahead_threads=1 sliced_threads=0 nr=0 decimate=1 interlaced=0 bluray_compat=0 constrained_intra=0 bframes=16 b_pyramid=2 b_adapt=2 b_bias=0 direct=3 weightb=1 open_gop=0 weightp=2 keyint=250 keyint_min=25 scenecut=40 intra_refresh=0 rc_lookahead=60 rc=abr mbtree=1 bitrate=15000 ratetol=1.0 qcomp=0.60 qpmin=0 qpmax=69 qpstep=4 ip_ratio=1.40 aq=1:1.00
Output #0, matroska, to 'Output/x264/encoded/crowd_run_2160p50placebo15000k.mkv':
  Metadata:
    encoder         : Lavf57.57.100
    Stream #0:0: Video: h264 (libx264) (H264 / 0x34363248), yuv420p, 3840x2160 [SAR 1:1 DAR 16:9], q=-1--1, 15000 kb/s, 50 fps, 1k tbn, 50 tbc
    Metadata:
      encoder         : Lavc57.66.101 libx264
    Side data:
      cpb: bitrate max/min/avg: 0/0/15000000 buffer size: 0 vbv_delay: -1
Stream mapping:
  Stream #0:0 -> #0:0 (rawvideo (native) -> h264 (libx264))
Press [q] to stop, [?] for help
frame=   19 fps=0.0 q=0.0 size=       0kB time=00:00:00.00 bitrate=N/A speed=   0x    frame=   28 fps= 27 q=0.0 size=       0kB time=00:00:00.00 bitrate=N/A speed=   0x    frame=   36 fps= 20 q=0.0 size=       0kB time=00:00:00.00 bitrate=N/A speed=   0x    frame=   41 fps= 17 q=0.0 size=       0kB time=00:00:00.00 bitrate=N/A speed=   0x    frame=   45 fps= 16 q=0.0 size=       0kB time=00:00:00.00 bitrate=N/A speed=   0x    frame=   54 fps= 15 q=0.0 size=       0kB time=00:00:00.00 bitrate=N/A speed=   0x    frame=   61 fps= 15 q=0.0 size=       0kB time=00:00:00.00 bitrate=N/A speed=   0x    frame=   70 fps= 15 q=0.0 size=       0kB time=00:00:00.00 bitrate=N/A speed=   0x    frame=   79 fps= 16 q=0.0 size=       0kB time=00:00:00.00 bitrate=N/A speed=   0x    frame=   84 fps=3.2 q=0.0 size=       0kB time=00:00:00.00 bitrate=N/A speed=   0x    frame=   89 fps=3.0 q=39.0 size=       1kB time=-00:00:00.01 bitrate=N/A speed=N/A    frame=   90 fps=2.4 q=34.0 size=       1kB time=00:00:00.00 bitrate=5888.0kbits/s speed=2.63e-05x    frame=   91 fps=2.3 q=32.0 size=       1kB time=00:00:00.02 bitrate= 280.4kbits/s speed=0.000537x    frame=   92 fps=2.3 q=35.0 size=       1kB time=00:00:00.04 bitrate= 143.6kbits/s speed=0.00103x    frame=   95 fps=2.2 q=42.0 size=       1kB time=00:00:00.10 bitrate=  58.3kbits/s speed=0.00229x    frame=   96 fps=1.9 q=40.0 size=       1kB time=00:00:00.12 bitrate=  48.7kbits/s speed=0.00242x    frame=   97 fps=1.9 q=43.0 size=       1kB time=00:00:00.14 bitrate=  41.8kbits/s speed=0.00276x    frame=  100 fps=1.9 q=47.0 size=       1kB time=00:00:00.20 bitrate=  29.3kbits/s speed=0.00383x    frame=  101 fps=1.9 q=47.0 size=       1kB time=00:00:00.22 bitrate=  26.6kbits/s speed=0.00412x    frame=  102 fps=1.7 q=47.0 size=       1kB time=00:00:00.24 bitrate=  24.4kbits/s speed=0.00408x    frame=  105 fps=1.7 q=47.0 size=       1kB time=00:00:00.30 bitrate=  19.6kbits/s speed=0.00475x    frame=  106 fps=1.6 q=48.0 size=       1kB time=00:00:00.32 bitrate=  18.3kbits/s speed=0.00495x    frame=  107 fps=1.6 q=48.0 size=       1kB time=00:00:00.34 bitrate=  17.3kbits/s speed=0.00517x    frame=  108 fps=1.6 q=47.0 size=       1kB time=00:00:00.36 bitrate=  16.3kbits/s speed=0.00538x    frame=  110 fps=1.6 q=47.0 size=       1kB time=00:00:00.40 bitrate=  14.7kbits/s speed=0.00592x    frame=  111 fps=1.5 q=47.0 size=       1kB time=00:00:00.42 bitrate=  14.0kbits/s speed=0.00555x    frame=  112 fps=1.5 q=47.0 size=       1kB time=00:00:00.44 bitrate=  13.4kbits/s speed=0.00575x    frame=  113 fps=1.5 q=46.0 size=       1kB time=00:00:00.46 bitrate=  12.8kbits/s speed=0.00594x    frame=  115 fps=1.4 q=46.0 size=       1kB time=00:00:00.50 bitrate=  11.8kbits/s speed=0.00599x    frame=  116 fps=1.4 q=46.0 size=       1kB time=00:00:00.52 bitrate=  11.3kbits/s speed=0.00612x    frame=  117 fps=1.4 q=46.0 size=       1kB time=00:00:00.54 bitrate=  10.9kbits/s speed=0.00628x    frame=  119 fps=1.3 q=46.0 size=       1kB time=00:00:00.58 bitrate=  10.1kbits/s speed=0.00621x    frame=  120 fps=1.3 q=46.0 size=       1kB time=00:00:00.60 bitrate=   9.8kbits/s speed=0.0063x    frame=  121 fps=1.2 q=46.0 size=       1kB time=00:00:00.62 bitrate=   9.5kbits/s speed=0.0064x    frame=  123 fps=1.2 q=46.0 size=       1kB time=00:00:00.66 bitrate=   8.9kbits/s speed=0.00627x    frame=  124 fps=1.2 q=46.0 size=       1kB time=00:00:00.68 bitrate=   8.6kbits/s speed=0.00638x    frame=  125 fps=1.2 q=46.0 size=       1kB time=00:00:00.70 bitrate=   8.4kbits/s speed=0.00646x    frame=  127 fps=1.1 q=45.0 size=       1kB time=00:00:00.74 bitrate=   7.9kbits/s speed=0.00625x    frame=  128 fps=1.1 q=46.0 size=       1kB time=00:00:00.76 bitrate=   7.7kbits/s speed=0.00633x    frame=  129 fps=1.1 q=45.0 size=       1kB time=00:00:00.78 bitrate=   7.5kbits/s speed=0.0064x    frame=  132 fps=1.0 q=45.0 size=       1kB time=00:00:00.84 bitrate=   7.0kbits/s speed=0.00636x    frame=  133 fps=1.0 q=45.0 size=       1kB time=00:00:00.86 bitrate=   6.8kbits/s speed=0.00644x    frame=  134 fps=1.0 q=45.0 size=       1kB time=00:00:00.88 bitrate=   6.7kbits/s speed=0.00651x    frame=  136 fps=1.0 q=45.0 size=       1kB time=00:00:00.92 bitrate=   6.4kbits/s speed=0.00678x    frame=  137 fps=0.9 q=45.0 size=       1kB time=00:00:00.94 bitrate=   6.3kbits/s speed=0.00638x    frame=  138 fps=0.9 q=45.0 size=       1kB time=00:00:00.96 bitrate=   6.1kbits/s speed=0.00643x    frame=  139 fps=0.9 q=45.0 size=       1kB time=00:00:00.98 bitrate=   6.0kbits/s speed=0.00649x    frame=  142 fps=0.9 q=45.0 size=       1kB time=00:00:01.04 bitrate=   5.7kbits/s speed=0.00649x    frame=  143 fps=0.9 q=45.0 size=       1kB time=00:00:01.06 bitrate=   5.5kbits/s speed=0.00653x    frame=  144 fps=0.9 q=45.0 size=       1kB time=00:00:01.08 bitrate=   5.4kbits/s speed=0.00659x    frame=  145 fps=0.9 q=44.0 size=       1kB time=00:00:01.10 bitrate=   5.3kbits/s speed=0.00666x    frame=  147 fps=0.8 q=44.0 size=       1kB time=00:00:01.14 bitrate=   5.2kbits/s speed=0.00651x    frame=  148 fps=0.8 q=44.0 size=       1kB time=00:00:01.16 bitrate=   5.1kbits/s speed=0.00658x    frame=  149 fps=0.8 q=44.0 size=       1kB time=00:00:01.18 bitrate=   5.0kbits/s speed=0.00664x    frame=  151 fps=0.8 q=44.0 size=       1kB time=00:00:01.22 bitrate=   4.8kbits/s speed=0.00652x    frame=  152 fps=0.8 q=44.0 size=       1kB time=00:00:01.24 bitrate=   4.7kbits/s speed=0.00655x    frame=  153 fps=0.8 q=44.0 size=       1kB time=00:00:01.26 bitrate=   4.7kbits/s speed=0.0066x    frame=  156 fps=0.8 q=44.0 size=       1kB time=00:00:01.32 bitrate=   4.5kbits/s speed=0.00662x    frame=  157 fps=0.8 q=44.0 size=       1kB time=00:00:01.34 bitrate=   4.4kbits/s speed=0.00663x    frame=  158 fps=0.8 q=44.0 size=       1kB time=00:00:01.36 bitrate=   4.3kbits/s speed=0.00668x    frame=  159 fps=0.8 q=44.0 size=       1kB time=00:00:01.38 bitrate=   4.3kbits/s speed=0.00676x    frame=  160 fps=0.7 q=44.0 size=       1kB time=00:00:01.40 bitrate=   4.2kbits/s speed=0.00656x    frame=  161 fps=0.7 q=44.0 size=       1kB time=00:00:01.42 bitrate=   4.1kbits/s speed=0.00658x    frame=  162 fps=0.7 q=44.0 size=       1kB time=00:00:01.44 bitrate=   4.1kbits/s speed=0.00662x    frame=  165 fps=0.7 q=44.0 size=       1kB time=00:00:01.50 bitrate=   3.9kbits/s speed=0.00659x    frame=  166 fps=0.7 q=44.0 size=       1kB time=00:00:01.52 bitrate=   3.9kbits/s speed=0.00664x    frame=  167 fps=0.7 q=44.0 size=       1kB time=00:00:01.54 bitrate=   3.8kbits/s speed=0.00669x    frame=  169 fps=0.7 q=44.0 size=       1kB time=00:00:01.58 bitrate=   3.7kbits/s speed=0.00657x    frame=  170 fps=0.7 q=44.0 size=       1kB time=00:00:01.60 bitrate=   3.7kbits/s speed=0.00661x    frame=  171 fps=0.7 q=43.0 size=       1kB time=00:00:01.62 bitrate=   3.6kbits/s speed=0.00664x    frame=  174 fps=0.7 q=43.0 size=       1kB time=00:00:01.68 bitrate=   3.5kbits/s speed=0.00658x    frame=  175 fps=0.7 q=43.0 size=       1kB time=00:00:01.70 bitrate=   3.5kbits/s speed=0.00662x    frame=  176 fps=0.7 q=43.0 size=       1kB time=00:00:01.72 bitrate=   3.4kbits/s speed=0.00665x    frame=  178 fps=0.7 q=43.0 size=       1kB time=00:00:01.76 bitrate=   3.3kbits/s speed=0.00679x    frame=  179 fps=0.7 q=43.0 size=       1kB time=00:00:01.78 bitrate=   3.3kbits/s speed=0.00661x    frame=  180 fps=0.7 q=43.0 size=       1kB time=00:00:01.80 bitrate=   3.3kbits/s speed=0.00666x    frame=  181 fps=0.7 q=43.0 size=       1kB time=00:00:01.82 bitrate=   3.2kbits/s speed=0.00669x    frame=  183 fps=0.6 q=43.0 size=       1kB time=00:00:01.86 bitrate=   3.2kbits/s speed=0.00659x    frame=  184 fps=0.6 q=43.0 size=       1kB time=00:00:01.88 bitrate=   3.1kbits/s speed=0.00663x    frame=  185 fps=0.6 q=43.0 size=       1kB time=00:00:01.90 bitrate=   3.1kbits/s speed=0.00667x    frame=  187 fps=0.6 q=43.0 size=       1kB time=00:00:01.94 bitrate=   3.0kbits/s speed=0.00657x    frame=  188 fps=0.6 q=43.0 size=       1kB time=00:00:01.96 bitrate=   3.0kbits/s speed=0.0066x    frame=  189 fps=0.6 q=43.0 size=       1kB time=00:00:01.98 bitrate=   3.0kbits/s speed=0.00664x    frame=  193 fps=0.6 q=43.0 size=       1kB time=00:00:02.06 bitrate=   2.9kbits/s speed=0.00653x    frame=  194 fps=0.6 q=43.0 size=       1kB time=00:00:02.08 bitrate=   2.8kbits/s speed=0.00656x    frame=  195 fps=0.6 q=43.0 size=       1kB time=00:00:02.10 bitrate=   2.8kbits/s speed=0.00659x    frame=  198 fps=0.6 q=43.0 size=       1kB time=00:00:02.16 bitrate=   2.7kbits/s speed=0.00667x    frame=  199 fps=0.6 q=43.0 size=       1kB time=00:00:02.18 bitrate=   2.7kbits/s speed=0.00658x    frame=  200 fps=0.6 q=43.0 size=       1kB time=00:00:02.20 bitrate=   2.7kbits/s speed=0.00661x    frame=  204 fps=0.6 q=43.0 size=       1kB time=00:00:02.28 bitrate=   2.6kbits/s speed=0.00658x    frame=  205 fps=0.6 q=43.0 size=       1kB time=00:00:02.30 bitrate=   2.6kbits/s speed=0.0066x    frame=  206 fps=0.6 q=43.0 size=       1kB time=00:00:02.32 bitrate=   2.5kbits/s speed=0.00663x    frame=  208 fps=0.6 q=43.0 size=       1kB time=00:00:02.36 bitrate=   2.5kbits/s speed=0.00658x    frame=  209 fps=0.6 q=43.0 size=       1kB time=00:00:02.38 bitrate=   2.5kbits/s speed=0.0066x    frame=  210 fps=0.6 q=43.0 size=       1kB time=00:00:02.40 bitrate=   2.5kbits/s speed=0.00663x    frame=  213 fps=0.6 q=43.0 size=       1kB time=00:00:02.46 bitrate=   2.4kbits/s speed=0.00679x    frame=  214 fps=0.6 q=43.0 size=    5176kB time=00:00:02.48 bitrate=17090.4kbits/s speed=0.00654x    frame=  215 fps=0.6 q=43.0 size=    5176kB time=00:00:02.50 bitrate=16953.7kbits/s speed=0.00657x    frame=  216 fps=0.6 q=43.0 size=    5176kB time=00:00:02.52 bitrate=16819.2kbits/s speed=0.00659x    frame=  219 fps=0.6 q=42.0 size=    5176kB time=00:00:02.58 bitrate=16428.2kbits/s speed=0.00668x    frame=  220 fps=0.6 q=42.0 size=    5176kB time=00:00:02.60 bitrate=16301.9kbits/s speed=0.00657x    frame=  221 fps=0.6 q=43.0 size=    5176kB time=00:00:02.62 bitrate=16177.5kbits/s speed=0.0066x    frame=  225 fps=0.5 q=42.0 size=    5176kB time=00:00:02.70 bitrate=15698.3kbits/s speed=0.00658x    frame=  226 fps=0.5 q=42.0 size=    5176kB time=00:00:02.72 bitrate=15583.0kbits/s speed=0.00661x    frame=  227 fps=0.5 q=42.0 size=    5176kB time=00:00:02.74 bitrate=15469.2kbits/s speed=0.00664x    frame=  229 fps=0.5 q=42.0 size=    5176kB time=00:00:02.78 bitrate=15246.7kbits/s speed=0.00656x    frame=  230 fps=0.5 q=42.0 size=    5176kB time=00:00:02.80 bitrate=15137.9kbits/s speed=0.00659x    frame=  231 fps=0.5 q=42.0 size=    5176kB time=00:00:02.82 bitrate=15030.6kbits/s speed=0.00661x    frame=  234 fps=0.5 q=42.0 size=    5176kB time=00:00:02.88 bitrate=14717.5kbits/s speed=0.00657x    frame=  235 fps=0.5 q=42.0 size=    5176kB time=00:00:02.90 bitrate=14616.1kbits/s speed=0.00659x    frame=  236 fps=0.5 q=42.0 size=    5176kB time=00:00:02.92 bitrate=14516.0kbits/s speed=0.00662x    frame=  238 fps=0.5 q=42.0 size=    5176kB time=00:00:02.96 bitrate=14319.9kbits/s speed=0.00655x    frame=  239 fps=0.5 q=42.0 size=    5176kB time=00:00:02.98 bitrate=14223.8kbits/s speed=0.00656x    frame=  240 fps=0.5 q=42.0 size=    5176kB time=00:00:03.00 bitrate=14129.0kbits/s speed=0.00658x    frame=  244 fps=0.5 q=42.0 size=    5176kB time=00:00:03.08 bitrate=13762.2kbits/s speed=0.00649x    frame=  245 fps=0.5 q=42.0 size=    5176kB time=00:00:03.10 bitrate=13673.4kbits/s speed=0.00651x    frame=  246 fps=0.5 q=42.0 size=    5176kB time=00:00:03.12 bitrate=13585.8kbits/s speed=0.00654x    frame=  250 fps=0.5 q=42.0 size=    5176kB time=00:00:03.20 bitrate=13246.2kbits/s speed=0.00646x    frame=  251 fps=0.5 q=42.0 size=    5176kB time=00:00:03.22 bitrate=13164.0kbits/s speed=0.00647x    frame=  252 fps=0.5 q=42.0 size=    5176kB time=00:00:03.24 bitrate=13082.8kbits/s speed=0.0065x    frame=  255 fps=0.5 q=42.0 size=    5176kB time=00:00:03.30 bitrate=12845.0kbits/s speed=0.00655x    frame=  256 fps=0.5 q=42.0 size=    5176kB time=00:00:03.32 bitrate=12767.6kbits/s speed=0.00647x    frame=  257 fps=0.5 q=42.0 size=    5176kB time=00:00:03.34 bitrate=12691.2kbits/s speed=0.00648x    frame=  261 fps=0.5 q=42.0 size=    5176kB time=00:00:03.42 bitrate=12394.4kbits/s speed=0.00647x    frame=  262 fps=0.5 q=42.0 size=    5176kB time=00:00:03.44 bitrate=12322.4kbits/s speed=0.00649x    frame=  263 fps=0.5 q=42.0 size=    5176kB time=00:00:03.46 bitrate=12251.1kbits/s speed=0.0065x    frame=  266 fps=0.5 q=42.0 size=    5176kB time=00:00:03.52 bitrate=12042.4kbits/s speed=0.00646x    frame=  267 fps=0.5 q=42.0 size=    5176kB time=00:00:03.54 bitrate=11974.4kbits/s speed=0.00648x    frame=  268 fps=0.5 q=42.0 size=    5176kB time=00:00:03.56 bitrate=11907.1kbits/s speed=0.00649x    frame=  271 fps=0.5 q=42.0 size=    5176kB time=00:00:03.62 bitrate=11709.8kbits/s speed=0.00646x    frame=  272 fps=0.5 q=42.0 size=    5176kB time=00:00:03.64 bitrate=11645.5kbits/s speed=0.00648x    frame=  273 fps=0.5 q=42.0 size=    5176kB time=00:00:03.66 bitrate=11581.9kbits/s speed=0.00649x    frame=  276 fps=0.5 q=42.0 size=    5176kB time=00:00:03.72 bitrate=11395.1kbits/s speed=0.00647x    frame=  277 fps=0.5 q=42.0 size=    5176kB time=00:00:03.74 bitrate=11334.2kbits/s speed=0.00648x    frame=  278 fps=0.5 q=42.0 size=    5176kB time=00:00:03.76 bitrate=11273.9kbits/s speed=0.00649x    frame=  280 fps=0.5 q=42.0 size=    5176kB time=00:00:03.80 bitrate=11155.3kbits/s speed=0.00645x    frame=  281 fps=0.5 q=42.0 size=    5176kB time=00:00:03.82 bitrate=11096.9kbits/s speed=0.00646x    frame=  282 fps=0.5 q=42.0 size=    5176kB time=00:00:03.84 bitrate=11039.1kbits/s speed=0.00648x    frame=  285 fps=0.5 q=42.0 size=    5176kB time=00:00:03.90 bitrate=10869.3kbits/s speed=0.00644x    frame=  286 fps=0.5 q=42.0 size=    5176kB time=00:00:03.92 bitrate=10813.9kbits/s speed=0.00645x    frame=  287 fps=0.5 q=42.0 size=    5176kB time=00:00:03.94 bitrate=10759.0kbits/s speed=0.00646x    frame=  290 fps=0.5 q=42.0 size=    5176kB time=00:00:04.00 bitrate=10597.7kbits/s speed=0.00646x    frame=  291 fps=0.5 q=42.0 size=    5176kB time=00:00:04.02 bitrate=10544.9kbits/s speed=0.00647x    frame=  292 fps=0.5 q=42.0 size=    5176kB time=00:00:04.04 bitrate=10492.8kbits/s speed=0.00648x    frame=  294 fps=0.5 q=42.0 size=    5176kB time=00:00:04.08 bitrate=10389.9kbits/s speed=0.00642x    frame=  295 fps=0.5 q=42.0 size=    5176kB time=00:00:04.10 bitrate=10339.2kbits/s speed=0.00643x    frame=  296 fps=0.5 q=42.0 size=    5176kB time=00:00:04.12 bitrate=10289.1kbits/s speed=0.00644x    frame=  299 fps=0.5 q=42.0 size=    5176kB time=00:00:04.18 bitrate=10141.4kbits/s speed=0.00643x    frame=  300 fps=0.5 q=42.0 size=    5176kB time=00:00:04.20 bitrate=10093.1kbits/s speed=0.00644x    frame=  301 fps=0.5 q=42.0 size=    5176kB time=00:00:04.22 bitrate=10045.3kbits/s speed=0.00645x    frame=  303 fps=0.5 q=42.0 size=    5176kB time=00:00:04.26 bitrate=9951.0kbits/s speed=0.0065x    frame=  304 fps=0.5 q=42.0 size=    5176kB time=00:00:04.28 bitrate=9904.5kbits/s speed=0.00642x    frame=  305 fps=0.5 q=42.0 size=    5176kB time=00:00:04.30 bitrate=9858.5kbits/s speed=0.00644x    frame=  306 fps=0.5 q=42.0 size=    5176kB time=00:00:04.32 bitrate=9812.8kbits/s speed=0.00645x    frame=  308 fps=0.5 q=42.0 size=    5176kB time=00:00:04.36 bitrate=9722.8kbits/s speed=0.00641x    frame=  309 fps=0.5 q=42.0 size=    5176kB time=00:00:04.38 bitrate=9678.4kbits/s speed=0.00642x    frame=  310 fps=0.5 q=42.0 size=    5176kB time=00:00:04.40 bitrate=9634.4kbits/s speed=0.00644x    frame=  312 fps=0.5 q=42.0 size=    5176kB time=00:00:04.44 bitrate=9547.7kbits/s speed=0.00649x    frame=  313 fps=0.4 q=42.0 size=    5176kB time=00:00:04.46 bitrate=9504.9kbits/s speed=0.00639x    frame=  314 fps=0.4 q=42.0 size=    5176kB time=00:00:04.48 bitrate=9462.4kbits/s speed=0.0064x    frame=  315 fps=0.4 q=42.0 size=    5176kB time=00:00:04.50 bitrate=9420.4kbits/s speed=0.00642x    frame=  316 fps=0.5 q=42.0 size=    5176kB time=00:00:04.52 bitrate=9378.7kbits/s speed=0.00645x    frame=  318 fps=0.4 q=42.0 size=    5176kB time=00:00:04.56 bitrate=9296.5kbits/s speed=0.0064x    frame=  319 fps=0.4 q=42.0 size=    5176kB time=00:00:04.58 bitrate=9255.9kbits/s speed=0.0064x    frame=  320 fps=0.4 q=42.0 size=    5176kB time=00:00:04.60 bitrate=9215.7kbits/s speed=0.00642x    frame=  323 fps=0.4 q=42.0 size=    5176kB time=00:00:04.66 bitrate=9097.0kbits/s speed=0.00637x    frame=  324 fps=0.4 q=42.0 size=    5176kB time=00:00:04.68 bitrate=9058.2kbits/s speed=0.00638x    frame=  325 fps=0.4 q=42.0 size=    5176kB time=00:00:04.70 bitrate=9019.6kbits/s speed=0.0064x    frame=  328 fps=0.4 q=42.0 size=    5176kB time=00:00:04.76 bitrate=8905.9kbits/s speed=0.00638x    frame=  329 fps=0.4 q=42.0 size=    5176kB time=00:00:04.78 bitrate=8868.7kbits/s speed=0.00639x    frame=  330 fps=0.4 q=42.0 size=    5176kB time=00:00:04.80 bitrate=8831.7kbits/s speed=0.0064x    frame=  333 fps=0.4 q=39.0 size=    5176kB time=00:00:04.86 bitrate=8722.7kbits/s speed=0.00636x    frame=  334 fps=0.4 q=42.0 size=    5176kB time=00:00:04.88 bitrate=8687.0kbits/s speed=0.00638x    frame=  335 fps=0.4 q=42.0 size=    5176kB time=00:00:04.90 bitrate=8651.5kbits/s speed=0.00639x    frame=  338 fps=0.4 q=42.0 size=    9297kB time=00:00:04.96 bitrate=15352.4kbits/s speed=0.00647x    frame=  340 fps=0.4 q=42.0 size=    9297kB time=00:00:05.00 bitrate=15229.6kbits/s speed=0.00649x    frame=  341 fps=0.4 q=42.0 size=    9297kB time=00:00:05.02 bitrate=15169.0kbits/s speed=0.00651x    frame=  342 fps=0.4 q=42.0 size=    9297kB time=00:00:05.04 bitrate=15108.8kbits/s speed=0.00653x    frame=  344 fps=0.4 q=42.0 size=    9297kB time=00:00:05.08 bitrate=14989.8kbits/s speed=0.00655x    frame=  345 fps=0.4 q=42.0 size=    9297kB time=00:00:05.10 bitrate=14931.1kbits/s speed=0.00657x    frame=  346 fps=0.4 q=42.0 size=    9297kB time=00:00:05.12 bitrate=14872.8kbits/s speed=0.00658x    frame=  349 fps=0.4 q=42.0 size=    9297kB time=00:00:05.18 bitrate=14700.5kbits/s speed=0.00661x    frame=  350 fps=0.4 q=42.0 size=    9297kB time=00:00:05.20 bitrate=14644.0kbits/s speed=0.00663x    frame=  351 fps=0.4 q=42.0 size=    9297kB time=00:00:05.22 bitrate=14587.9kbits/s speed=0.00664x    frame=  354 fps=0.4 q=42.0 size=    9297kB time=00:00:05.28 bitrate=14422.2kbits/s speed=0.00667x    frame=  355 fps=0.4 q=42.0 size=    9297kB time=00:00:05.30 bitrate=14367.7kbits/s speed=0.00669x    frame=  356 fps=0.4 q=42.0 size=    9297kB time=00:00:05.32 bitrate=14313.7kbits/s speed=0.0067x    frame=  358 fps=0.4 q=42.0 size=    9297kB time=00:00:05.36 bitrate=14206.9kbits/s speed=0.00668x    frame=  359 fps=0.4 q=42.0 size=    9297kB time=00:00:05.38 bitrate=14154.1kbits/s speed=0.00669x    frame=  360 fps=0.4 q=42.0 size=    9297kB time=00:00:05.40 bitrate=14101.7kbits/s speed=0.0067x    frame=  363 fps=0.4 q=42.0 size=    9297kB time=00:00:05.46 bitrate=13946.8kbits/s speed=0.0067x    frame=  364 fps=0.4 q=42.0 size=    9297kB time=00:00:05.48 bitrate=13895.9kbits/s speed=0.00671x    frame=  365 fps=0.4 q=42.0 size=    9297kB time=00:00:05.50 bitrate=13845.4kbits/s speed=0.00672x    frame=  368 fps=0.4 q=42.0 size=    9297kB time=00:00:05.56 bitrate=13696.0kbits/s speed=0.00669x    frame=  369 fps=0.4 q=42.0 size=    9297kB time=00:00:05.58 bitrate=13646.9kbits/s speed=0.0067x    frame=  370 fps=0.4 q=42.0 size=    9297kB time=00:00:05.60 bitrate=13598.2kbits/s speed=0.00671x    frame=  373 fps=0.4 q=42.0 size=    9297kB time=00:00:05.66 bitrate=13454.1kbits/s speed=0.00668x    frame=  374 fps=0.4 q=42.0 size=    9297kB time=00:00:05.68 bitrate=13406.7kbits/s speed=0.00669x    frame=  375 fps=0.4 q=42.0 size=    9297kB time=00:00:05.70 bitrate=13359.7kbits/s speed=0.00669x    frame=  378 fps=0.4 q=42.0 size=    9297kB time=00:00:05.76 bitrate=13220.5kbits/s speed=0.00669x    frame=  379 fps=0.4 q=42.0 size=    9297kB time=00:00:05.78 bitrate=13174.8kbits/s speed=0.0067x    frame=  380 fps=0.4 q=42.0 size=    9297kB time=00:00:05.80 bitrate=13129.4kbits/s speed=0.00671x    frame=  381 fps=0.4 q=42.0 size=    9297kB time=00:00:05.82 bitrate=13084.3kbits/s speed=0.00673x    frame=  382 fps=0.4 q=42.0 size=    9297kB time=00:00:05.84 bitrate=13039.4kbits/s speed=0.00665x    frame=  383 fps=0.4 q=42.0 size=    9297kB time=00:00:05.86 bitrate=12995.0kbits/s speed=0.00666x    frame=  384 fps=0.4 q=42.0 size=    9297kB time=00:00:05.88 bitrate=12950.8kbits/s speed=0.00668x    frame=  386 fps=0.4 q=42.0 size=    9297kB time=00:00:05.92 bitrate=12863.3kbits/s speed=0.00671x    frame=  387 fps=0.4 q=42.0 size=    9297kB time=00:00:05.94 bitrate=12820.0kbits/s speed=0.00668x    frame=  388 fps=0.4 q=42.0 size=    9297kB time=00:00:05.96 bitrate=12777.0kbits/s speed=0.00667x    frame=  389 fps=0.4 q=42.0 size=    9297kB time=00:00:05.98 bitrate=12734.2kbits/s speed=0.00669x    frame=  391 fps=0.4 q=42.0 size=    9297kB time=00:00:06.02 bitrate=12649.6kbits/s speed=0.00664x    frame=  392 fps=0.4 q=42.0 size=    9297kB time=00:00:06.04 bitrate=12607.8kbits/s speed=0.00665x    frame=  393 fps=0.4 q=42.0 size=    9297kB time=00:00:06.06 bitrate=12566.1kbits/s speed=0.00666x    frame=  395 fps=0.4 q=42.0 size=    9297kB time=00:00:06.10 bitrate=12483.8kbits/s speed=0.0067x    frame=  396 fps=0.4 q=42.0 size=    9297kB time=00:00:06.12 bitrate=12443.0kbits/s speed=0.00664x    frame=  397 fps=0.4 q=42.0 size=    9297kB time=00:00:06.14 bitrate=12402.4kbits/s speed=0.00665x    frame=  398 fps=0.4 q=42.0 size=    9297kB time=00:00:06.16 bitrate=12362.2kbits/s speed=0.00666x    frame=  402 fps=0.4 q=42.0 size=    9297kB time=00:00:06.24 bitrate=12203.7kbits/s speed=0.00661x    frame=  403 fps=0.4 q=42.0 size=    9297kB time=00:00:06.26 bitrate=12164.7kbits/s speed=0.00662x    frame=  404 fps=0.4 q=42.0 size=    9297kB time=00:00:06.28 bitrate=12126.0kbits/s speed=0.00662x    frame=  407 fps=0.4 q=42.0 size=    9297kB time=00:00:06.34 bitrate=12011.3kbits/s speed=0.00666x    frame=  408 fps=0.4 q=42.0 size=    9297kB time=00:00:06.36 bitrate=11973.5kbits/s speed=0.00662x    frame=  409 fps=0.4 q=42.0 size=    9297kB time=00:00:06.38 bitrate=11936.0kbits/s speed=0.00663x    frame=  412 fps=0.4 q=42.0 size=    9297kB time=00:00:06.44 bitrate=11824.8kbits/s speed=0.0066x    frame=  413 fps=0.4 q=42.0 size=    9297kB time=00:00:06.46 bitrate=11788.2kbits/s speed=0.00661x    frame=  414 fps=0.4 q=42.0 size=    9297kB time=00:00:06.48 bitrate=11751.8kbits/s speed=0.00662x    frame=  417 fps=0.4 q=42.0 size=    9297kB time=00:00:06.54 bitrate=11644.0kbits/s speed=0.00661x    frame=  418 fps=0.4 q=42.0 size=    9297kB time=00:00:06.56 bitrate=11608.5kbits/s speed=0.00661x    frame=  419 fps=0.4 q=42.0 size=    9297kB time=00:00:06.58 bitrate=11573.2kbits/s speed=0.00662x    frame=  421 fps=0.4 q=42.0 size=    9297kB time=00:00:06.62 bitrate=11503.3kbits/s speed=0.00658x    frame=  422 fps=0.4 q=42.0 size=    9297kB time=00:00:06.64 bitrate=11468.7kbits/s speed=0.00659x    frame=  423 fps=0.4 q=42.0 size=    9297kB time=00:00:06.66 bitrate=11434.2kbits/s speed=0.0066x    frame=  426 fps=0.4 q=42.0 size=    9297kB time=00:00:06.72 bitrate=11332.2kbits/s speed=0.00661x    frame=  427 fps=0.4 q=42.0 size=    9297kB time=00:00:06.74 bitrate=11298.5kbits/s speed=0.00659x    frame=  428 fps=0.4 q=42.0 size=    9297kB time=00:00:06.76 bitrate=11265.1kbits/s speed=0.0066x    frame=  430 fps=0.4 q=42.0 size=    9297kB time=00:00:06.80 bitrate=11198.9kbits/s speed=0.00657x    frame=  431 fps=0.4 q=42.0 size=    9297kB time=00:00:06.82 bitrate=11166.0kbits/s speed=0.00658x    frame=  432 fps=0.4 q=42.0 size=    9297kB time=00:00:06.84 bitrate=11133.4kbits/s speed=0.00659x    frame=  436 fps=0.4 q=42.0 size=    9297kB time=00:00:06.92 bitrate=11004.7kbits/s speed=0.00655x    frame=  437 fps=0.4 q=42.0 size=    9297kB time=00:00:06.94 bitrate=10973.0kbits/s speed=0.00656x    frame=  438 fps=0.4 q=42.0 size=    9297kB time=00:00:06.96 bitrate=10941.4kbits/s speed=0.00656x    frame=  440 fps=0.4 q=42.0 size=    9297kB time=00:00:07.00 bitrate=10878.9kbits/s speed=0.00658x    frame=  441 fps=0.4 q=42.0 size=    9297kB time=00:00:07.02 bitrate=10847.9kbits/s speed=0.00659x    frame=  442 fps=0.4 q=42.0 size=    9297kB time=00:00:07.04 bitrate=10817.1kbits/s speed=0.00658x    frame=  443 fps=0.4 q=42.0 size=    9297kB time=00:00:07.06 bitrate=10786.5kbits/s speed=0.0066x    frame=  444 fps=0.4 q=42.0 size=    9297kB time=00:00:07.08 bitrate=10756.0kbits/s speed=0.00659x    frame=  445 fps=0.4 q=42.0 size=    9297kB time=00:00:07.10 bitrate=10725.7kbits/s speed=0.00654x    frame=  446 fps=0.4 q=42.0 size=    9297kB time=00:00:07.12 bitrate=10695.6kbits/s speed=0.00655x    frame=  447 fps=0.4 q=42.0 size=    9297kB time=00:00:07.14 bitrate=10665.7kbits/s speed=0.00656x    frame=  449 fps=0.4 q=42.0 size=    9297kB time=00:00:07.18 bitrate=10606.2kbits/s speed=0.00655x    frame=  450 fps=0.4 q=42.0 size=    9297kB time=00:00:07.20 bitrate=10576.8kbits/s speed=0.00655x    frame=  451 fps=0.4 q=42.0 size=    9297kB time=00:00:07.22 bitrate=10547.5kbits/s speed=0.00656x    frame=  454 fps=0.4 q=42.0 size=    9297kB time=00:00:07.28 bitrate=10460.6kbits/s speed=0.00661x    frame=  455 fps=0.4 q=42.0 size=    9297kB time=00:00:07.30 bitrate=10431.9kbits/s speed=0.00653x    frame=  456 fps=0.4 q=42.0 size=    9297kB time=00:00:07.32 bitrate=10403.4kbits/s speed=0.00653x    frame=  457 fps=0.4 q=42.0 size=    9297kB time=00:00:07.34 bitrate=10375.1kbits/s speed=0.00655x    frame=  459 fps=0.4 q=42.0 size=    9297kB time=00:00:07.38 bitrate=10318.8kbits/s speed=0.00656x    frame=  460 fps=0.4 q=42.0 size=    9297kB time=00:00:07.40 bitrate=10291.0kbits/s speed=0.00656x    frame=  461 fps=0.4 q=42.0 size=    9297kB time=00:00:07.42 bitrate=10263.2kbits/s speed=0.00655x    frame=  462 fps=0.4 q=42.0 size=    9297kB time=00:00:07.44 bitrate=10235.6kbits/s speed=0.00655x    frame=  465 fps=0.4 q=42.0 size=    9297kB time=00:00:07.50 bitrate=10153.8kbits/s speed=0.00653x    frame=  466 fps=0.4 q=42.0 size=    9297kB time=00:00:07.52 bitrate=10126.8kbits/s speed=0.00654x    frame=  467 fps=0.4 q=42.0 size=    9297kB time=00:00:07.54 bitrate=10099.9kbits/s speed=0.00655x    frame=  469 fps=0.4 q=42.0 size=    9297kB time=00:00:07.58 bitrate=10046.6kbits/s speed=0.00654x    frame=  470 fps=0.4 q=42.0 size=    9297kB time=00:00:07.60 bitrate=10020.2kbits/s speed=0.00655x    frame=  471 fps=0.4 q=42.0 size=    9297kB time=00:00:07.62 bitrate=9993.9kbits/s speed=0.00656x    frame=  473 fps=0.4 q=42.0 size=    9297kB time=00:00:07.66 bitrate=9941.7kbits/s speed=0.00652x    frame=  474 fps=0.4 q=42.0 size=    9297kB time=00:00:07.68 bitrate=9915.8kbits/s speed=0.00653x    frame=  475 fps=0.4 q=42.0 size=    9297kB time=00:00:07.70 bitrate=9890.1kbits/s speed=0.00654x    frame=  477 fps=0.4 q=42.0 size=    9297kB time=00:00:07.74 bitrate=9839.0kbits/s speed=0.00654x    frame=  478 fps=0.4 q=42.0 size=    9297kB time=00:00:07.76 bitrate=9813.6kbits/s speed=0.00656x    frame=  479 fps=0.4 q=42.0 size=    9297kB time=00:00:07.78 bitrate=9788.4kbits/s speed=0.00657x    frame=  480 fps=0.4 q=42.0 size=   14437kB time=00:00:07.80 bitrate=15160.1kbits/s speed=0.00652x    frame=  481 fps=0.4 q=42.0 size=   14437kB time=00:00:07.82 bitrate=15121.4kbits/s speed=0.00652x    frame=  482 fps=0.4 q=42.0 size=   14437kB time=00:00:07.84 bitrate=15082.8kbits/s speed=0.00653x    frame=  483 fps=0.4 q=42.0 size=   14437kB time=00:00:07.86 bitrate=15044.4kbits/s speed=0.00653x    frame=  484 fps=0.4 q=42.0 size=   14437kB time=00:00:07.88 bitrate=15006.2kbits/s speed=0.00654x    frame=  485 fps=0.4 q=42.0 size=   14437kB time=00:00:07.90 bitrate=14968.3kbits/s speed=0.00655x    frame=  486 fps=0.4 q=42.0 size=   14437kB time=00:00:07.92 bitrate=14930.5kbits/s speed=0.00656x    frame=  487 fps=0.4 q=42.0 size=   14437kB time=00:00:07.94 bitrate=14892.9kbits/s speed=0.00651x    frame=  488 fps=0.4 q=42.0 size=   14437kB time=00:00:07.96 bitrate=14855.4kbits/s speed=0.00652x    frame=  489 fps=0.4 q=42.0 size=   14437kB time=00:00:07.98 bitrate=14818.2kbits/s speed=0.00653x    frame=  490 fps=0.4 q=42.0 size=   14437kB time=00:00:08.00 bitrate=14781.2kbits/s speed=0.00652x    frame=  491 fps=0.4 q=42.0 size=   14437kB time=00:00:08.02 bitrate=14744.3kbits/s speed=0.00653x    frame=  492 fps=0.4 q=42.0 size=   14437kB time=00:00:08.04 bitrate=14707.6kbits/s speed=0.00654x    frame=  493 fps=0.4 q=42.0 size=   14437kB time=00:00:08.06 bitrate=14671.2kbits/s speed=0.00655x    frame=  494 fps=0.4 q=42.0 size=   14437kB time=00:00:08.08 bitrate=14634.8kbits/s speed=0.0065x    frame=  495 fps=0.4 q=42.0 size=   14437kB time=00:00:08.10 bitrate=14598.7kbits/s speed=0.0065x    frame=  496 fps=0.4 q=42.0 size=   14437kB time=00:00:08.12 bitrate=14562.8kbits/s speed=0.00651x    frame=  498 fps=0.4 q=42.0 size=   14437kB time=00:00:08.16 bitrate=14491.4kbits/s speed=0.00651x    frame=  499 fps=0.4 q=42.0 size=   14437kB time=00:00:08.18 bitrate=14456.0kbits/s speed=0.00652x    frame=  500 fps=0.4 q=42.0 size=   14437kB time=00:00:08.20 bitrate=14420.7kbits/s speed=0.00653x    frame=  500 fps=0.4 q=42.0 size=   14437kB time=00:00:08.20 bitrate=14420.7kbits/s speed=0.00652x    frame=  500 fps=0.3 q=-1.0 Lsize=   18081kB time=00:00:09.94 bitrate=14899.9kbits/s speed=0.00648x    
video:18076kB audio:0kB subtitle:0kB other streams:0kB global headers:0kB muxing overhead: 0.025980%
bench: utime=5854.820s
bench: maxrss=4881128kB
[libx264 @ 0x36c21c0] frame I:2     Avg QP:32.76  size:602310
[libx264 @ 0x36c21c0] frame P:108   Avg QP:42.67  size: 78286
[libx264 @ 0x36c21c0] frame B:390   Avg QP:45.46  size: 22692
[libx264 @ 0x36c21c0] consecutive B-frames:  0.6%  0.4%  3.6% 32.8% 41.0% 21.6%  0.0%  0.0%  0.0%  0.0%  0.0%  0.0%  0.0%  0.0%  0.0%  0.0%  0.0%
[libx264 @ 0x36c21c0] mb I  I16..4: 10.7% 79.4%  9.9%
[libx264 @ 0x36c21c0] mb P  I16..4:  0.9%  3.7%  0.1%  P16..4: 37.7% 22.1%  5.4%  0.2%  0.0%    skip:29.9%
[libx264 @ 0x36c21c0] mb B  I16..4:  0.0%  0.2%  0.0%  B16..8: 39.9%  7.6%  0.4%  direct: 0.5%  skip:51.4%  L0:46.0% L1:52.8% BI: 1.2%
[libx264 @ 0x36c21c0] final ratefactor: 33.60
[libx264 @ 0x36c21c0] 8x8 transform intra:79.6% inter:84.3%
[libx264 @ 0x36c21c0] direct mvs  spatial:99.2% temporal:0.8%
[libx264 @ 0x36c21c0] coded y,uvDC,uvAC intra: 49.7% 54.3% 21.7% inter: 2.9% 3.8% 0.1%
[libx264 @ 0x36c21c0] i16 v,h,dc,p: 31% 23%  2% 43%
[libx264 @ 0x36c21c0] i8 v,h,dc,ddl,ddr,vr,hd,vl,hu:  4%  2%  1% 13% 18% 17% 18% 14% 12%
[libx264 @ 0x36c21c0] i4 v,h,dc,ddl,ddr,vr,hd,vl,hu:  6%  3%  3% 13% 16% 15% 15% 13% 16%
[libx264 @ 0x36c21c0] i8c dc,h,v,p: 41% 19% 17% 23%
[libx264 @ 0x36c21c0] Weighted P-Frames: Y:0.0% UV:0.0%
[libx264 @ 0x36c21c0] ref P L0: 56.2%  9.2% 12.1%  3.7%  3.3%  3.0%  2.8%  1.3%  1.1%  1.0%  1.0%  1.0%  1.3%  1.3%  1.2%  0.6%
[libx264 @ 0x36c21c0] ref B L0: 95.3%  2.2%  0.9%  0.3%  0.3%  0.2%  0.2%  0.1%  0.1%  0.1%  0.1%  0.1%  0.1%  0.1%  0.1%
[libx264 @ 0x36c21c0] ref B L1: 99.2%  0.8%
[libx264 @ 0x36c21c0] kb/s:14807.62
